<mxfile host="app.diagrams.net" agent="Mozilla/5.0 (Windows NT 10.0; Win64; x64) AppleWebKit/537.36 (KHTML, like Gecko) Chrome/134.0.0.0 Safari/537.36" version="26.1.0">
  <diagram name="Sayfa -1" id="KX3NgIX6zhc7eZHYEHYs">
    <mxGraphModel dx="1434" dy="738" grid="1" gridSize="10" guides="1" tooltips="1" connect="1" arrows="1" fold="1" page="1" pageScale="1" pageWidth="827" pageHeight="1169" math="0" shadow="0">
      <root>
        <mxCell id="0" />
        <mxCell id="1" parent="0" />
        <mxCell id="yZzik43taTmMTAiLPrGY-15" style="edgeStyle=orthogonalEdgeStyle;rounded=0;orthogonalLoop=1;jettySize=auto;html=1;exitX=0.5;exitY=0;exitDx=0;exitDy=0;exitPerimeter=0;fontFamily=Helvetica;fontSize=12;fontColor=default;" edge="1" parent="1" source="yZzik43taTmMTAiLPrGY-1" target="yZzik43taTmMTAiLPrGY-7">
          <mxGeometry relative="1" as="geometry" />
        </mxCell>
        <mxCell id="yZzik43taTmMTAiLPrGY-16" style="edgeStyle=orthogonalEdgeStyle;rounded=0;orthogonalLoop=1;jettySize=auto;html=1;exitX=0.5;exitY=0.5;exitDx=0;exitDy=0;exitPerimeter=0;entryX=0;entryY=0;entryDx=0;entryDy=0;fontFamily=Helvetica;fontSize=12;fontColor=default;" edge="1" parent="1" source="yZzik43taTmMTAiLPrGY-1" target="yZzik43taTmMTAiLPrGY-8">
          <mxGeometry relative="1" as="geometry" />
        </mxCell>
        <mxCell id="yZzik43taTmMTAiLPrGY-17" style="edgeStyle=orthogonalEdgeStyle;rounded=0;orthogonalLoop=1;jettySize=auto;html=1;exitX=1;exitY=1;exitDx=0;exitDy=0;exitPerimeter=0;fontFamily=Helvetica;fontSize=12;fontColor=default;" edge="1" parent="1" source="yZzik43taTmMTAiLPrGY-1" target="yZzik43taTmMTAiLPrGY-9">
          <mxGeometry relative="1" as="geometry" />
        </mxCell>
        <mxCell id="yZzik43taTmMTAiLPrGY-1" value="Student&lt;div&gt;&lt;br&gt;&lt;/div&gt;" style="shape=umlActor;verticalLabelPosition=bottom;verticalAlign=top;html=1;outlineConnect=0;" vertex="1" parent="1">
          <mxGeometry x="30" y="110" width="50" height="100" as="geometry" />
        </mxCell>
        <mxCell id="yZzik43taTmMTAiLPrGY-13" style="edgeStyle=orthogonalEdgeStyle;rounded=0;orthogonalLoop=1;jettySize=auto;html=1;exitX=0.5;exitY=0.5;exitDx=0;exitDy=0;exitPerimeter=0;fontFamily=Helvetica;fontSize=12;fontColor=default;" edge="1" parent="1" source="yZzik43taTmMTAiLPrGY-4">
          <mxGeometry relative="1" as="geometry">
            <mxPoint x="190" y="550" as="targetPoint" />
          </mxGeometry>
        </mxCell>
        <mxCell id="yZzik43taTmMTAiLPrGY-14" style="edgeStyle=orthogonalEdgeStyle;rounded=0;orthogonalLoop=1;jettySize=auto;html=1;fontFamily=Helvetica;fontSize=12;fontColor=default;" edge="1" parent="1" source="yZzik43taTmMTAiLPrGY-4" target="yZzik43taTmMTAiLPrGY-1">
          <mxGeometry relative="1" as="geometry" />
        </mxCell>
        <mxCell id="yZzik43taTmMTAiLPrGY-4" value="&lt;div&gt;Teacher&lt;/div&gt;&lt;div&gt;&lt;br&gt;&lt;/div&gt;" style="shape=umlActor;verticalLabelPosition=bottom;verticalAlign=top;html=1;outlineConnect=0;" vertex="1" parent="1">
          <mxGeometry x="30" y="500" width="50" height="100" as="geometry" />
        </mxCell>
        <mxCell id="yZzik43taTmMTAiLPrGY-7" value="general schedule&lt;div&gt;&lt;br&gt;&lt;/div&gt;" style="ellipse;whiteSpace=wrap;html=1;strokeColor=default;align=center;verticalAlign=top;fontFamily=Helvetica;fontSize=12;fontColor=default;fillColor=default;" vertex="1" parent="1">
          <mxGeometry x="190" y="30" width="90" height="50" as="geometry" />
        </mxCell>
        <mxCell id="yZzik43taTmMTAiLPrGY-8" value="&lt;div&gt;Your&lt;/div&gt;&lt;div&gt;schedule&lt;/div&gt;&lt;div&gt;&lt;br&gt;&lt;/div&gt;" style="ellipse;whiteSpace=wrap;html=1;strokeColor=default;align=center;verticalAlign=top;fontFamily=Helvetica;fontSize=12;fontColor=default;fillColor=default;" vertex="1" parent="1">
          <mxGeometry x="190" y="150" width="90" height="50" as="geometry" />
        </mxCell>
        <mxCell id="yZzik43taTmMTAiLPrGY-9" value="&lt;div&gt;group&lt;/div&gt;&lt;div&gt;schedule&lt;/div&gt;" style="ellipse;whiteSpace=wrap;html=1;strokeColor=default;align=center;verticalAlign=top;fontFamily=Helvetica;fontSize=12;fontColor=default;fillColor=default;" vertex="1" parent="1">
          <mxGeometry x="190" y="270" width="90" height="50" as="geometry" />
        </mxCell>
        <mxCell id="yZzik43taTmMTAiLPrGY-18" value="" style="edgeStyle=orthogonalEdgeStyle;rounded=0;orthogonalLoop=1;jettySize=auto;html=1;fontFamily=Helvetica;fontSize=12;fontColor=default;" edge="1" parent="1" source="yZzik43taTmMTAiLPrGY-10" target="yZzik43taTmMTAiLPrGY-4">
          <mxGeometry relative="1" as="geometry" />
        </mxCell>
        <mxCell id="yZzik43taTmMTAiLPrGY-10" value="&lt;div&gt;grade evulation&lt;/div&gt;&lt;div&gt;&lt;br&gt;&lt;/div&gt;" style="ellipse;whiteSpace=wrap;html=1;strokeColor=default;align=center;verticalAlign=top;fontFamily=Helvetica;fontSize=12;fontColor=default;fillColor=default;" vertex="1" parent="1">
          <mxGeometry x="180" y="530" width="80" height="40" as="geometry" />
        </mxCell>
      </root>
    </mxGraphModel>
  </diagram>
</mxfile>
